<svg viewBox="379 125.7496 380 268.7683" width="5000" height="3536.4249999999997" xmlns="http://www.w3.org/2000/svg" xmlns:xlink="http://www.w3.org/1999/xlink" preserveAspectRatio="none"><defs></defs><style>.a-S0w-BlMKfillColor {fill:#C0BAA7;fill-opacity:1;}.aa78PUxVdr-fillColor {fill:#C0BAA7;fill-opacity:1;}.aIptOCySncolors-3 {fill:#EDEADC;fill-opacity:1;}.aIptOCySncolors-4 {fill:#AE360E;fill-opacity:1;}.aIptOCySncolors-5 {fill:#772306;fill-opacity:1;}.aIptOCySncolors-6 {fill:#DD5419;fill-opacity:1;}.aIptOCySncolors-7 {fill:#AA8E78;fill-opacity:1;}.aq6WP-wJgVstrokeColor-str {stroke:#F7F7E9;stroke-opacity:1;}.companyName {fill:#C0BAA7;fill-opacity:1;}.icon1 {fill:#EDEADC;fill-opacity:1;}.icon3 {fill:#F7F7E9;fill-opacity:1;}.icon3-str {stroke:#F7F7E9;stroke-opacity:1;}.shape {fill:#AE360E;fill-opacity:1;}.shapeStroke-str {stroke:#F7F7E9;stroke-opacity:1;}.text {fill:#C0BAA7;fill-opacity:1;}</style><g opacity="1" transform="rotate(0 379 331.8902)">
<svg width="138.8753" height="1.7893" x="379" y="331.8902" version="1.1" preserveAspectRatio="none" viewBox="0 0 138.8753 1.7893">
  <defs><rect x="0" y="0" width="138.8753" height="1.7893" rx="0px" ry="0px" id="id-5kldYRpCP"></rect></defs><use class="icon1 shapeStroke-str" style="stroke-width:0;" xlink:href="#id-5kldYRpCP"></use>
</svg>
</g><g opacity="1" transform="rotate(0 539.0498 311.0569)">
<svg width="59.9004" height="40.8997" x="539.0498" y="311.0569" version="1.1" preserveAspectRatio="none" viewBox="19.99881172180176 45.37599182128906 160.0006866455078 109.24801635742188">
  <g transform="matrix(1 0 0 1 0 0)"><g><path d="M120.23 154.624c-6.238 0-12.903-.92-19.976-2.761a2.286 2.286 0 0 1-1.709-2.033c-1.549-19.328 2.791-34.715 12.903-45.73 12.783-13.927 35.069-21.078 66.247-21.254.665.166 1.334.296 1.768.818.439.522.622 1.212.499 1.883-5.591 30.676-16.503 51.385-32.436 61.552-7.852 5.011-16.988 7.525-27.296 7.525zm-17.236-6.797c16.793 4.065 30.936 2.514 42.066-4.589 14.356-9.157 24.399-27.914 29.879-55.776-28.387.558-48.602 7.193-60.116 19.735-8.931 9.733-12.907 23.398-11.829 40.63z" data-color="1" class="icon1"></path><path d="M79.769 154.624c-10.31 0-19.443-2.51-27.297-7.525-15.934-10.167-26.847-30.876-32.436-61.552a2.29 2.29 0 0 1 2.255-2.701h.013c31.178.177 53.468 7.329 66.249 21.254 10.107 11.015 14.449 26.402 12.898 45.73a2.286 2.286 0 0 1-1.709 2.033c-7.071 1.84-13.737 2.761-19.973 2.761zM25.063 87.462c5.48 27.861 15.523 46.619 29.875 55.776 11.136 7.108 25.279 8.65 42.063 4.589 1.084-17.232-2.891-30.897-11.822-40.63C73.667 94.655 53.45 88.02 25.063 87.462zm74.105 62.185h.043-.043z" data-color="1" class="icon1"></path><path d="M101.456 150.277c-.464 0-.929-.145-1.329-.426-15.8-11.237-24.795-24.45-26.736-39.275-2.452-18.742 6.398-40.412 26.302-64.411.869-1.052 2.659-1.052 3.528 0 19.904 23.999 28.754 45.668 26.3 64.411-1.939 14.824-10.934 28.038-26.734 39.275a2.325 2.325 0 0 1-1.331.426zm0-99.032c-17.82 22.107-25.731 41.857-23.523 58.739 1.715 13.099 9.626 24.923 23.523 35.171 13.895-10.248 21.808-22.073 23.521-35.171 2.212-16.882-5.701-36.632-23.521-58.739z" data-color="1" class="icon1"></path></g></g>
</svg>
</g><g opacity="1" transform="rotate(0 415.4072 133.782)">
<svg width="307.1856" height="153.3741" x="415.4072" y="133.782" version="1.1" preserveAspectRatio="none" viewBox="2.4 -28.56 226.56 113.12">
  <g transform="matrix(1 0 0 1 0 0)" class="companyName"><path id="id-D6z1nYkh17" d="M104.02-0.40L104.02-0.40L104.66-0.40L104.66 0L95.98 0L95.98-0.36L96.58-0.36Q97.26-0.36 97.74-0.90Q98.22-1.44 98.14-2.08L98.14-2.08L96.34-22.20L87.94-3.52Q86.82-1.08 86.58 0.56L86.58 0.56L86.18 0.56L75.94-21.64L74.22-2.08Q74.14-1.44 74.62-0.90Q75.10-0.36 75.74-0.36L75.74-0.36L76.38-0.36L76.38 0L68.62 0L68.62-0.40L69.26-0.40Q70.38-0.40 71.20-1.08Q72.02-1.76 72.18-2.92L72.18-2.92L75.18-28.56L75.58-28.56L86.74-4.44L97.66-28.56L98.02-28.56L101.10-2.92Q101.30-1.32 102.70-0.68L102.70-0.68Q103.30-0.40 104.02-0.40Z M116.58-13.28L123.74-13.28L123.74-11.48L116.58-11.48L116.58-4.36L114.78-4.36L114.78-11.48L107.66-11.48L107.66-13.28L114.78-13.28L114.78-20.44L116.58-20.44L116.58-13.28Z M162.10-0.40L162.10-0.40L162.74-0.40L162.74 0L154.06 0L154.06-0.36L154.66-0.36Q155.34-0.36 155.82-0.90Q156.30-1.44 156.22-2.08L156.22-2.08L154.42-22.20L146.02-3.52Q144.90-1.08 144.66 0.56L144.66 0.56L144.26 0.56L134.02-21.64L132.30-2.08Q132.22-1.44 132.70-0.90Q133.18-0.36 133.82-0.36L133.82-0.36L134.46-0.36L134.46 0L126.70 0L126.70-0.40L127.34-0.40Q128.46-0.40 129.28-1.08Q130.10-1.76 130.26-2.92L130.26-2.92L133.26-28.56L133.66-28.56L144.82-4.44L155.74-28.56L156.10-28.56L159.18-2.92Q159.38-1.32 160.78-0.68L160.78-0.68Q161.38-0.40 162.10-0.40Z M2.40 41.60L2.92 41.60Q3.96 41.60 4.70 40.86Q5.44 40.12 5.48 39.08L5.48 39.08L5.48 16.88Q5.44 15.84 4.70 15.12Q3.96 14.40 2.92 14.40L2.92 14.40L2.40 14.40L2.40 14L11.16 14L11.16 14.40L10.64 14.40Q9.60 14.40 8.86 15.12Q8.12 15.84 8.08 16.88L8.08 16.88L8.08 39.08Q8.08 40.12 8.84 40.86Q9.60 41.60 10.64 41.60L10.64 41.60L11.16 41.60L11.16 42L2.40 42L2.40 41.60Z M44.08 18.40L43.40 18.40Q42.52 18.40 41.88 18.98Q41.24 19.56 41.20 20.40L41.20 20.40L41.20 37.44Q41.20 39.76 41.48 41.84L41.48 41.84L41.56 42.56L41.20 42.56L20.40 22.84L20.40 39.52Q20.40 40.40 21.04 41Q21.68 41.60 22.60 41.60L22.60 41.60L23.28 41.60L23.28 42L15.72 42L15.72 41.60L16.40 41.60Q17.32 41.60 17.96 41Q18.60 40.40 18.60 39.52L18.60 39.52L18.60 22.40Q18.60 19.96 18.32 18.04L18.32 18.04L18.24 17.40L18.68 17.44L39.44 37L39.44 20.40Q39.36 19.56 38.72 18.98Q38.08 18.40 37.20 18.40L37.20 18.40L36.52 18.40L36.52 18L44.08 18L44.08 18.40Z M48.60 40.68L48.60 40.68Q48.48 40.20 48.48 38.72Q48.48 37.24 49 35.72L49 35.72L49.48 35.72Q49.44 36.08 49.44 36.44L49.44 36.44Q49.44 38.60 50.86 39.98Q52.28 41.36 54.80 41.36L54.80 41.36Q57.44 41.36 58.92 40.14Q60.40 38.92 60.40 36.98Q60.40 35.04 58.96 33.76L58.96 33.76L50.96 27.60Q49.04 25.96 49.04 23.20L49.04 23.20Q49.04 21.64 49.90 20.32Q50.76 19 52.30 18.22Q53.84 17.44 55.92 17.44Q58 17.44 59.60 17.80L59.60 17.80L60.92 17.80L61 22.16L60.56 22.16Q60.56 20.48 59.40 19.56Q58.24 18.64 56.08 18.64Q53.92 18.64 52.52 19.74Q51.12 20.84 51.12 22.58Q51.12 24.32 52.68 25.60L52.68 25.60L60.76 31.84Q62.60 33.36 62.60 36.08Q62.60 38.80 60.54 40.68Q58.48 42.56 55.52 42.56L55.52 42.56Q53.56 42.56 51.60 42.08Q49.64 41.60 48.60 40.68Z M92.16 18L92.16 18.40L91.56 18.40Q90.48 18.40 89.92 19.24L89.92 19.24Q89.68 19.60 89.64 20.08L89.64 20.08L89.64 33.56Q89.64 37.72 86.98 40.14Q84.32 42.56 79.68 42.56Q75.04 42.56 72.36 40.16Q69.68 37.76 69.68 33.60L69.68 33.60L69.68 20.12Q69.68 19.40 69.12 18.90Q68.56 18.40 67.76 18.40L67.76 18.40L67.16 18.40L67.16 18L74.76 18L74.76 18.40L74.16 18.40Q73.36 18.40 72.80 18.90Q72.24 19.40 72.24 20.12L72.24 20.12L72.24 33.12Q72.24 37 74.22 39.24Q76.20 41.48 79.82 41.48Q83.44 41.48 85.62 39.36Q87.80 37.24 87.80 33.56L87.80 33.56L87.80 20.12Q87.76 19.36 87.22 18.88Q86.68 18.40 85.88 18.40L85.88 18.40L85.28 18.40L85.28 18L92.16 18Z M104.04 19.24L104.04 19.24L101.92 19.24L101.92 39.44Q101.96 40.68 103.04 41.32L103.04 41.32Q103.56 41.60 104.20 41.60L104.20 41.60L104.72 41.60L104.76 42L96.56 42L96.56 41.60L97.12 41.60Q98.04 41.60 98.70 40.98Q99.36 40.36 99.36 39.48L99.36 39.48L99.36 20.48Q99.36 19.60 98.70 19Q98.04 18.40 97.12 18.40L97.12 18.40L96.56 18.40L96.56 18L106.60 18Q110.36 18 112.54 19.72Q114.72 21.44 114.72 24.24Q114.72 27.04 112.96 28.92Q111.20 30.80 108.48 31.08L108.48 31.08Q109.76 31.64 111.56 34.20L111.56 34.20Q111.52 34.20 112.94 35.96Q114.36 37.72 115.22 38.70Q116.08 39.68 116.64 40.20L116.64 40.20Q118.12 41.60 120.04 41.60L120.04 41.60L120.04 42L118.80 42Q115.64 42 113.84 40.76L113.84 40.76Q112.48 39.84 111.36 38.48L111.36 38.48Q111.12 38.16 109.34 35.66Q107.56 33.16 107.44 33L107.44 33Q105.28 30.32 103.40 30.32L103.40 30.32L103.40 29.92Q108.08 29.92 109.04 29.44L109.04 29.44Q110.36 28.76 110.84 28L110.84 28Q111.84 26.40 111.84 24.48L111.84 24.48Q111.84 22.04 110.40 20.72Q108.96 19.40 106.52 19.28L106.52 19.28Q105.44 19.24 104.04 19.24Z M146.64 41.60L146.64 41.60L146.96 41.60L146.96 42L138.76 42L138.76 41.60L139.08 41.60Q139.84 41.60 140.24 41.08Q140.64 40.56 140.64 40.10Q140.64 39.64 140.48 39.20L140.48 39.20L138.28 33.88L128.16 33.88L125.96 39.08Q125.76 39.60 125.76 40.06Q125.76 40.52 126.16 41.06Q126.56 41.60 127.36 41.60L127.36 41.60L127.68 41.60L127.68 42L120.04 42L120.04 41.60L120.36 41.60Q121.20 41.60 122.06 41.02Q122.92 40.44 123.48 39.28L123.48 39.28Q132.24 20.56 132.60 19.68L132.60 19.68Q133.28 18 133.32 17.44L133.32 17.44L133.68 17.44L143.56 39.28Q144.72 41.60 146.64 41.60ZM133.32 21.72L128.68 32.68L137.80 32.68L133.32 21.72Z M177.32 18.40L176.64 18.40Q175.76 18.40 175.12 18.98Q174.48 19.56 174.44 20.40L174.44 20.40L174.44 37.44Q174.44 39.76 174.72 41.84L174.72 41.84L174.80 42.56L174.44 42.56L153.64 22.84L153.64 39.52Q153.64 40.40 154.28 41Q154.92 41.60 155.84 41.60L155.84 41.60L156.52 41.60L156.52 42L148.96 42L148.96 41.60L149.64 41.60Q150.56 41.60 151.20 41Q151.84 40.40 151.84 39.52L151.84 39.52L151.84 22.40Q151.84 19.96 151.56 18.04L151.56 18.04L151.48 17.40L151.92 17.44L172.68 37L172.68 20.40Q172.60 19.56 171.96 18.98Q171.32 18.40 170.44 18.40L170.44 18.40L169.76 18.40L169.76 18L177.32 18L177.32 18.40Z M194.52 42.56Q188.40 42.52 184.86 39.16Q181.32 35.80 181.32 29.98Q181.32 24.16 184.86 20.80Q188.40 17.44 194.52 17.44L194.52 17.44Q197.00 17.44 199.52 18.08Q202.04 18.72 203.88 19.84L203.88 19.84L204.76 25.52L204.40 25.52Q202.68 18.64 194.48 18.64L194.48 18.64Q189.72 18.64 186.96 21.68Q184.20 24.72 184.20 30L184.20 30Q184.20 33.44 185.44 35.98Q186.68 38.52 189.04 39.92L189.04 39.92Q191.40 41.32 194.52 41.32Q197.64 41.32 199.98 40.38Q202.32 39.44 203.86 37.28Q205.40 35.12 205.60 31.92L205.60 31.92L205.96 31.92L205.52 37.40Q203.96 39.80 201.00 41.18Q198.04 42.56 194.52 42.56L194.52 42.56Z M210.52 41.60L211.08 41.60Q212.04 41.60 212.70 40.98Q213.36 40.36 213.40 39.48L213.40 39.48L213.40 20.48Q213.40 19.60 212.72 19Q212.04 18.40 211.08 18.40L211.08 18.40L210.52 18.40L210.52 18L222.20 18Q223.84 18 225.08 17.76Q226.32 17.52 226.68 17.36L226.68 17.36L226.68 21.92L226.24 21.88L226.24 21.28Q226.24 20.44 225.68 19.84Q225.12 19.24 224.24 19.24L224.24 19.24L215.92 19.24L215.92 29.40L222.76 29.40Q223.56 29.40 223.98 28.92Q224.40 28.44 224.40 27.72L224.40 27.72L224.40 27.20L224.84 27.20L224.84 32.80L224.40 32.80L224.40 32.28Q224.40 31.16 223.56 30.76L223.56 30.76Q223.24 30.64 222.88 30.60L222.88 30.60L215.92 30.60L215.92 40.76L222.20 40.76Q224.04 40.76 225.30 40.12Q226.56 39.48 227.22 38.60Q227.88 37.72 228.56 36.28L228.56 36.28L228.96 36.28L226.76 42L210.52 42L210.52 41.60Z M62.42 84.56Q56.02 84.52 52.04 80.52Q48.06 76.52 48.06 70Q48.06 63.48 52.04 59.46Q56.02 55.44 62.42 55.44L62.42 55.44Q67.94 55.44 72.14 58.16L72.14 58.16L72.94 63.80L72.58 63.80Q71.70 60.36 69.04 58.50Q66.38 56.64 62.42 56.64L62.42 56.64Q57.34 56.64 54.20 60.32Q51.06 64 51.06 70Q51.06 76 54.20 79.66Q57.34 83.32 62.42 83.36L62.42 83.36Q65.02 83.36 67.36 82.44Q69.70 81.52 71.46 79.88L71.46 79.88L71.46 72.80Q71.46 71.92 70.92 71.46Q70.38 71 69.42 71L69.42 71L68.78 71L68.78 70.60L76.62 70.60L76.62 71L76.02 71Q75.02 71 74.50 71.46Q73.98 71.92 74.02 72.80L74.02 72.80L74.02 79.40Q72.98 80.76 71.54 81.84Q70.10 82.92 67.68 83.74Q65.26 84.56 62.42 84.56L62.42 84.56Z M87.66 61.24L87.66 61.24L85.54 61.24L85.54 81.44Q85.58 82.68 86.66 83.32L86.66 83.32Q87.18 83.60 87.82 83.60L87.82 83.60L88.34 83.60L88.38 84L80.18 84L80.18 83.60L80.74 83.60Q81.66 83.60 82.32 82.98Q82.98 82.36 82.98 81.48L82.98 81.48L82.98 62.48Q82.98 61.60 82.32 61Q81.66 60.40 80.74 60.40L80.74 60.40L80.18 60.40L80.18 60L90.22 60Q93.98 60 96.16 61.72Q98.34 63.44 98.34 66.24Q98.34 69.04 96.58 70.92Q94.82 72.80 92.10 73.08L92.10 73.08Q93.38 73.64 95.18 76.20L95.18 76.20Q95.14 76.20 96.56 77.96Q97.98 79.72 98.84 80.70Q99.70 81.68 100.26 82.20L100.26 82.20Q101.74 83.60 103.66 83.60L103.66 83.60L103.66 84L102.42 84Q99.26 84 97.46 82.76L97.46 82.76Q96.10 81.84 94.98 80.48L94.98 80.48Q94.74 80.16 92.96 77.66Q91.18 75.16 91.06 75L91.06 75Q88.90 72.32 87.02 72.32L87.02 72.32L87.02 71.92Q91.70 71.92 92.66 71.44L92.66 71.44Q93.98 70.76 94.46 70L94.46 70Q95.46 68.40 95.46 66.48L95.46 66.48Q95.46 64.04 94.02 62.72Q92.58 61.40 90.14 61.28L90.14 61.28Q89.06 61.24 87.66 61.24Z M111.18 61.02Q114.26 59.44 117.96 59.44Q121.66 59.44 124.74 61.02Q127.82 62.60 129.64 65.48Q131.46 68.36 131.46 72Q131.46 75.64 129.64 78.52Q127.82 81.40 124.74 82.98Q121.66 84.56 118.42 84.56Q115.18 84.56 112.70 83.64Q110.22 82.72 108.40 81.08Q106.58 79.44 105.52 77.08Q104.46 74.72 104.46 71.54Q104.46 68.36 106.28 65.48Q108.10 62.60 111.18 61.02ZM110.44 80.18Q113.46 83.36 117.94 83.36Q122.42 83.36 125.46 80.18Q128.50 77 128.50 72Q128.50 67 125.46 63.82Q122.42 60.64 117.94 60.64Q113.46 60.64 110.44 63.82Q107.42 67 107.42 72Q107.42 77 110.44 80.18Z M160.42 60L160.42 60.40L159.82 60.40Q158.74 60.40 158.18 61.24L158.18 61.24Q157.94 61.60 157.90 62.08L157.90 62.08L157.90 75.56Q157.90 79.72 155.24 82.14Q152.58 84.56 147.94 84.56Q143.30 84.56 140.62 82.16Q137.94 79.76 137.94 75.60L137.94 75.60L137.94 62.12Q137.94 61.40 137.38 60.90Q136.82 60.40 136.02 60.40L136.02 60.40L135.42 60.40L135.42 60L143.02 60L143.02 60.40L142.42 60.40Q141.62 60.40 141.06 60.90Q140.50 61.40 140.50 62.12L140.50 62.12L140.50 75.12Q140.50 79 142.48 81.24Q144.46 83.48 148.08 83.48Q151.70 83.48 153.88 81.36Q156.06 79.24 156.06 75.56L156.06 75.56L156.06 62.12Q156.02 61.36 155.48 60.88Q154.94 60.40 154.14 60.40L154.14 60.40L153.54 60.40L153.54 60L160.42 60Z M171.78 73.04L171.78 72.64Q172.70 72.88 173.46 72.88Q174.22 72.88 174.70 72.84Q175.18 72.80 176.06 72.58Q176.94 72.36 177.66 71.88L177.66 71.88Q179.34 70.84 180.14 68.60L180.14 68.60Q180.42 67.80 180.42 66.44L180.42 66.44Q180.42 64 178.74 62.60Q177.06 61.20 174.10 61.20L174.10 61.20L170.22 61.20L170.22 81.44Q170.26 82.72 171.38 83.32L171.38 83.32Q171.90 83.60 172.54 83.60L172.54 83.60L173.10 83.60L173.10 84L164.82 84L164.82 83.60L165.38 83.60Q166.34 83.60 167 82.98Q167.66 82.36 167.70 81.48L167.70 81.48L167.70 62.52Q167.66 61.60 167 61Q166.34 60.40 165.38 60.40L165.38 60.40L164.82 60.40L164.82 60L174.18 60Q178.38 60 180.84 61.84Q183.30 63.68 183.30 66.80L183.30 66.80Q183.30 69.04 182.26 70.72L182.26 70.72Q180.22 74 175.94 74L175.94 74Q173.82 74 171.78 73.04L171.78 73.04Z"/></g>
</svg>
</g><g opacity="1" transform="rotate(0 379 376.6243)">
<svg width="380" height="17.8936" x="379" y="376.6243" version="1.1" preserveAspectRatio="none" viewBox="4.56 -28.24 604.72 28.48">
  <g transform="matrix(1 0 0 1 0 0)" class="text"><path id="id-D-YM9nyY421" d="M4.56 0L4.56-28L7.52-28L7.52 0L4.56 0Z M40.32-28L43.24-28L43.24 0L40.80 0L22.80-22.72L22.80 0L19.84 0L19.84-28L22.28-28L40.32-5.28L40.32-28Z M63.28 0.24Q60.16 0.24 57.30-0.76Q54.44-1.76 52.88-3.40L52.88-3.40L54.04-5.68Q55.56-4.16 58.08-3.22Q60.60-2.28 63.28-2.28L63.28-2.28Q67.04-2.28 68.92-3.66Q70.80-5.04 70.80-7.24L70.80-7.24Q70.80-8.92 69.78-9.92Q68.76-10.92 67.28-11.46Q65.80-12 63.16-12.64L63.16-12.64Q60.00-13.44 58.12-14.18Q56.24-14.92 54.90-16.44Q53.56-17.96 53.56-20.56L53.56-20.56Q53.56-22.68 54.68-24.42Q55.80-26.16 58.12-27.20Q60.44-28.24 63.88-28.24L63.88-28.24Q66.28-28.24 68.58-27.58Q70.88-26.92 72.56-25.76L72.56-25.76L71.56-23.40Q69.80-24.56 67.80-25.14Q65.80-25.72 63.88-25.72L63.88-25.72Q60.20-25.72 58.34-24.30Q56.48-22.88 56.48-20.64L56.48-20.64Q56.48-18.96 57.50-17.94Q58.52-16.92 60.06-16.38Q61.60-15.84 64.20-15.20L64.20-15.20Q67.28-14.44 69.18-13.70Q71.08-12.96 72.40-11.46Q73.72-9.96 73.72-7.40L73.72-7.40Q73.72-5.28 72.58-3.54Q71.44-1.80 69.08-0.78Q66.72 0.24 63.28 0.24L63.28 0.24Z M94.64 0.24Q89.20 0.24 86.16-2.88Q83.12-6 83.12-11.96L83.12-11.96L83.12-28L86.08-28L86.08-12.08Q86.08-7.20 88.28-4.80Q90.48-2.40 94.64-2.40L94.64-2.40Q98.84-2.40 101.04-4.80Q103.24-7.20 103.24-12.08L103.24-12.08L103.24-28L106.12-28L106.12-11.96Q106.12-6 103.10-2.88Q100.08 0.24 94.64 0.24L94.64 0.24Z M140.60 0L137.36 0L130.96-9Q129.88-8.88 128.72-8.88L128.72-8.88L121.20-8.88L121.20 0L118.24 0L118.24-28L128.72-28Q134.08-28 137.12-25.44Q140.16-22.88 140.16-18.40L140.16-18.40Q140.16-15.12 138.50-12.86Q136.84-10.60 133.76-9.60L133.76-9.60L140.60 0ZM128.64-11.40Q132.80-11.40 135.00-13.24Q137.20-15.08 137.20-18.40L137.20-18.40Q137.20-21.80 135.00-23.62Q132.80-25.44 128.64-25.44L128.64-25.44L121.20-25.44L121.20-11.40L128.64-11.40Z M171.28 0L167.92-7.48L152.32-7.48L148.96 0L145.88 0L158.68-28L161.60-28L174.40 0L171.28 0ZM153.40-9.88L166.84-9.88L160.12-24.92L153.40-9.88Z M202.72-28L205.64-28L205.64 0L203.20 0L185.20-22.72L185.20 0L182.24 0L182.24-28L184.68-28L202.72-5.28L202.72-28Z M230.12 0.24Q225.96 0.24 222.62-1.60Q219.28-3.44 217.38-6.70Q215.48-9.96 215.48-14L215.48-14Q215.48-18.04 217.38-21.30Q219.28-24.56 222.64-26.40Q226-28.24 230.16-28.24L230.16-28.24Q233.28-28.24 235.92-27.20Q238.56-26.16 240.40-24.16L240.40-24.16L238.52-22.28Q235.24-25.60 230.24-25.60L230.24-25.60Q226.92-25.60 224.20-24.08Q221.48-22.56 219.94-19.92Q218.40-17.28 218.40-14L218.40-14Q218.40-10.72 219.94-8.08Q221.48-5.44 224.20-3.92Q226.92-2.40 230.24-2.40L230.24-2.40Q235.28-2.40 238.52-5.76L238.52-5.76L240.40-3.88Q238.56-1.88 235.90-0.82Q233.24 0.24 230.12 0.24L230.12 0.24Z M252.88-2.56L269.72-2.56L269.72 0L249.92 0L249.92-28L269.12-28L269.12-25.44L252.88-25.44L252.88-15.48L267.36-15.48L267.36-12.96L252.88-12.96L252.88-2.56Z M320.20-28L322.64-28L322.64 0L319.80 0L319.80-22.40L308.80-3.56L307.40-3.56L296.40-22.28L296.40 0L293.56 0L293.56-28L296-28L308.16-7.24L320.20-28Z M355.88 0L352.52-7.48L336.92-7.48L333.56 0L330.48 0L343.28-28L346.20-28L359 0L355.88 0ZM338-9.88L351.44-9.88L344.72-24.92L338-9.88Z M366.84 0L366.84-28L378.24-28Q382.68-28 386.08-26.22Q389.48-24.44 391.36-21.26Q393.24-18.08 393.24-14L393.24-14Q393.24-9.92 391.36-6.74Q389.48-3.56 386.08-1.78Q382.68 0 378.24 0L378.24 0L366.84 0ZM369.80-2.56L378.08-2.56Q381.76-2.56 384.52-4.02Q387.28-5.48 388.80-8.06Q390.32-10.64 390.32-14L390.32-14Q390.32-17.36 388.80-19.94Q387.28-22.52 384.52-23.98Q381.76-25.44 378.08-25.44L378.08-25.44L369.80-25.44L369.80-2.56Z M406.04-2.56L422.88-2.56L422.88 0L403.08 0L403.08-28L422.28-28L422.28-25.44L406.04-25.44L406.04-15.48L420.52-15.48L420.52-12.96L406.04-12.96L406.04-2.56Z M454.44 0.24Q451.32 0.24 448.46-0.76Q445.60-1.76 444.04-3.40L444.04-3.40L445.20-5.68Q446.72-4.16 449.24-3.22Q451.76-2.28 454.44-2.28L454.44-2.28Q458.20-2.28 460.08-3.66Q461.96-5.04 461.96-7.24L461.96-7.24Q461.96-8.92 460.94-9.92Q459.92-10.92 458.44-11.46Q456.96-12 454.32-12.64L454.32-12.64Q451.16-13.44 449.28-14.18Q447.40-14.92 446.06-16.44Q444.72-17.96 444.72-20.56L444.72-20.56Q444.72-22.68 445.84-24.42Q446.96-26.16 449.28-27.20Q451.60-28.24 455.04-28.24L455.04-28.24Q457.44-28.24 459.74-27.58Q462.04-26.92 463.72-25.76L463.72-25.76L462.72-23.40Q460.96-24.56 458.96-25.14Q456.96-25.72 455.04-25.72L455.04-25.72Q451.36-25.72 449.50-24.30Q447.64-22.88 447.64-20.64L447.64-20.64Q447.64-18.96 448.66-17.94Q449.68-16.92 451.22-16.38Q452.76-15.84 455.36-15.20L455.36-15.20Q458.44-14.44 460.34-13.70Q462.24-12.96 463.56-11.46Q464.88-9.96 464.88-7.40L464.88-7.40Q464.88-5.28 463.74-3.54Q462.60-1.80 460.24-0.78Q457.88 0.24 454.44 0.24L454.44 0.24Z M474.52 0L474.52-28L477.48-28L477.48 0L474.52 0Z M516.44-28L518.88-28L518.88 0L516.04 0L516.04-22.40L505.04-3.56L503.64-3.56L492.64-22.28L492.64 0L489.80 0L489.80-28L492.24-28L504.40-7.24L516.44-28Z M541.68-28Q547.04-28 550.08-25.44Q553.12-22.88 553.12-18.40L553.12-18.40Q553.12-13.92 550.08-11.38Q547.04-8.84 541.68-8.84L541.68-8.84L534.16-8.84L534.16 0L531.20 0L531.20-28L541.68-28ZM541.60-11.44Q545.76-11.44 547.96-13.26Q550.16-15.08 550.16-18.40L550.16-18.40Q550.16-21.80 547.96-23.62Q545.76-25.44 541.60-25.44L541.60-25.44L534.16-25.44L534.16-11.44L541.60-11.44Z M562.72 0L562.72-28L565.68-28L565.68-2.56L581.36-2.56L581.36 0L562.72 0Z M592.44-2.56L609.28-2.56L609.28 0L589.48 0L589.48-28L608.68-28L608.68-25.44L592.44-25.44L592.44-15.48L606.92-15.48L606.92-12.96L592.44-12.96L592.44-2.56Z"/></g>
</svg>
</g><g opacity="1" transform="rotate(0 620.1248 331.8902)">
<svg width="138.8752" height="1.7893" x="620.1248" y="331.8902" version="1.1" preserveAspectRatio="none" viewBox="0 0 138.8752 1.7893">
  <defs><rect x="0" y="0" width="138.8752" height="1.7893" rx="0px" ry="0px" id="id-q6WP-wJgV"></rect></defs><use class="icon1 aq6WP-wJgVstrokeColor-str" style="stroke-width:0;" xlink:href="#id-q6WP-wJgV"></use>
</svg>
</g><g opacity="1" transform="rotate(0 498.9502 125.7496)">
<svg width="59.9004" height="59.9004" x="498.9502" y="125.7496" version="1.1" preserveAspectRatio="none" viewBox="29.5 29.5 141 141">
  <defs><g transform="matrix(1 0 0 1 0 0)" id="id-a78PUxVdr-"><g><path d="M100 170.5c-38.874 0-70.5-31.626-70.5-70.5S61.126 29.5 100 29.5s70.5 31.626 70.5 70.5-31.626 70.5-70.5 70.5zm0-133c-34.463 0-62.5 28.037-62.5 62.5s28.037 62.5 62.5 62.5 62.5-28.037 62.5-62.5-28.037-62.5-62.5-62.5z"></path></g></g></defs><use class="aa78PUxVdr-fillColor shapeStroke-str" style="stroke-width:0;" xlink:href="#id-a78PUxVdr-"></use>
</svg>
</g><g opacity="1" transform="rotate(0 578.9502 125.7496)">
<svg width="59.9004" height="59.9004" x="578.9502" y="125.7496" version="1.1" preserveAspectRatio="none" viewBox="29.5 29.5 141 141">
  <defs><g transform="matrix(1 0 0 1 0 0)" id="id--S0w-BlMK"><g><path d="M100 170.5c-38.874 0-70.5-31.626-70.5-70.5S61.126 29.5 100 29.5s70.5 31.626 70.5 70.5-31.626 70.5-70.5 70.5zm0-133c-34.463 0-62.5 28.037-62.5 62.5s28.037 62.5 62.5 62.5 62.5-28.037 62.5-62.5-28.037-62.5-62.5-62.5z"></path></g></g></defs><use class="a-S0w-BlMKfillColor shapeStroke-str" style="stroke-width:0;" xlink:href="#id--S0w-BlMK"></use>
</svg>
</g></svg>